<?xml version="1.0" encoding="utf-8"?>
<svg version="1.1" id="Layer_1"
xmlns="http://www.w3.org/2000/svg"
xmlns:xlink="http://www.w3.org/1999/xlink"
xmlns:author="http://www.sothink.com"
width="260px" height="308px"
xml:space="preserve">
<g id="PathID_57" transform="matrix(0.0352941, 0, 0, 0.0352941, 48, 37.8)">
<path style="fill:#000000;fill-opacity:1" d="M188 0l-96 0l0 -96l96 0l0 96l0 0" />
</g>
<g id="PathID_58" transform="matrix(0.0352941, 0, 0, 0.0352941, 96, 37.8)">
<path style="fill:#000000;fill-opacity:1" d="M48 -363.5q0 -131 26.5 -211.5q26.5 -80.5 78.5 -123q52 -42 131 -42q58.5 0 103 24q45 24 73 68.5q27.5 45 43.5 109.5q16.5 65 16.5 174.5q0 129.5 -26 210q-26.5 80.5 -78.5 123q-52 42.5 -131.5 42.5q-104.5 0 -164.5 -74.5q-71.5 -94 -71.5 -301l0 0M140 -364q0 182.5 41.5 241.5q41.5 58.5 102.5 58.5q61 0 102.5 -59q41.5 -59 41.5 -241q0 -181 -41 -240.5q-41 -59.5 -104 -59.5q-61 0 -98.5 52.5q-44.5 67 -44.5 247.5l0 0" />
</g>
<g id="PathID_59" transform="matrix(0.0352941, 0, 0, 0.0352941, 144, 37.8)">
<path style="fill:#000000;fill-opacity:1" d="M380 -740l0 740l-92 0l0 -576.5q-31.5 31 -83.5 62q-51.5 31.5 -92.5 47l0 -87.5q74.5 -35.5 130 -86.5q55.5 -50.5 79 -98.5l59 0l0 0" />
</g>
<g id="PathID_60" transform="matrix(0.0352941, 0, 0, 0.0352941, 192, 37.8)">
<path style="fill:#000000;fill-opacity:1" d="M152.5 -92l355.5 0l0 92l-476 0q-1 -33.5 10 -65q17 -51 55 -100.5q38 -49.5 113 -112.5q117.5 -101.5 161.5 -157q44.5 -55.5 44.5 -106q0 -51.5 -38 -87.5q-38 -35.5 -99 -35.5q-65 0 -103.5 39.5q-39 39 -39.5 108.5l-92 -12q9.5 -103.5 71 -157.5q62 -54.5 166 -54.5q104.5 0 166 58.5q61 58.5 61 145q0 44 -18 86.5q-17.5 42.5 -59 89q-41.5 47 -135.5 129q-80 67.5 -103.5 91.5q-24 24 -39.5 48.5l0 0" />
</g>
<g id="PathID_61" transform="matrix(0.0352941, 0, 0, 0.0352941, 0, 84)">
<path style="fill:#000000;fill-opacity:1" d="M48 -192l92 -12q15 74.5 50.5 107q35.5 33 90 33q64 0 105.5 -44q42 -43.5 42 -108q0 -62 -39.5 -102q-39.5 -40 -101 -40q-25 0 -62 10l10 -80q8.5 1 14 1q53 0 96 -30q42.5 -30 42.5 -92.5q0 -49.5 -32 -82q-31.5 -32.5 -82 -32.5q-50 0 -83 32q-33.5 32 -43 96l-92 -12q16 -91.5 73 -141.5q57 -50.5 142 -50.5q58.5 0 107.5 26q49.5 26 75.5 70.5q26 45 26 95.5q0 47.5 -25.5 87q-25.5 39 -75.5 62.5q65 15 103 62q38 47.5 38 118.5q0 96.5 -69 163q-68.5 67 -174 67q-94.5 0 -157.5 -57q-62.5 -56.5 -71.5 -147l0 0" />
</g>
<g id="PathID_62" transform="matrix(0.0352941, 0, 0, 0.0352941, 48, 84)">
<path style="fill:#000000;fill-opacity:1" d="M420 0l-92 0l0 -176l-316 0l0 -84l336 -468l72 0l0 468l100 0l0 84l-100 0l0 176l0 0M101 -260l227 0l0 -316l-227 316l0 0" />
</g>
<g id="PathID_63" transform="matrix(0.0352941, 0, 0, 0.0352941, 96, 84)">
<path style="fill:#000000;fill-opacity:1" d="M48 -192l92 -8q10.5 68 48 102q37 34 93 34q68 0 111.5 -49q43.5 -48.5 43.5 -129.5q0 -76.5 -42 -121q-42 -44.5 -115.5 -44.5q-46 0 -80 20q-34.5 20 -54.5 52l-84 -12l76 -380l352 0l0 92l-284.5 0l-38.5 194.5q65.5 -46.5 137 -46.5q95 0 160.5 66.5q65.5 67 65.5 171.5q0 100 -57.5 173q-69.5 89 -190 89q-98.5 0 -161 -56q-62.5 -55.5 -71.5 -148l0 0" />
</g>
<g id="PathID_64" transform="matrix(0.0352941, 0, 0, 0.0352941, 144, 84)">
<path style="fill:#000000;fill-opacity:1" d="M508 -556l-92 8q-11.5 -53 -33 -77.5q-35.5 -38.5 -87.5 -38.5q-42 0 -75.5 23.5q-39.5 31 -63 89.5q-24 58.5 -25 168.5q32 -49.5 78 -73.5q46.5 -24 97 -24q88.5 0 151 67q62 66.5 62 172.5q0 69.5 -29.5 129.5q-29.5 59.5 -81 91.5q-51.5 31.5 -117 31.5q-111.5 0 -182 -83q-70.5 -83 -70.5 -274q0 -213.5 78 -310.5q68 -84.5 183.5 -84.5q86 0 140.5 49q55 49 66 135l0 0M144 -241q0 47 19.5 89.5q19.5 43 53.5 65q34 22.5 74 22.5q58.5 0 97.5 -46q39.5 -46.5 39.5 -125.5q0 -76.5 -39 -120.5q-38.5 -44 -101 -44q-60.5 0 -102 44q-42 44 -42 115l0 0" />
</g>
<g id="PathID_65" transform="matrix(0.0352941, 0, 0, 0.0352941, 192, 84)">
<path style="fill:#000000;fill-opacity:1" d="M404 -636l-356 0l0 -92l472 0l0 74.5q-69 75.5 -137 199q-68 123 -105 253.5q-26.5 91.5 -34 201l-92 0q1.5 -86.5 33.5 -208.5q32 -122.5 91.5 -236q59.5 -113.5 127 -191.5l0 0" />
</g>
<g id="PathID_66" transform="matrix(0.0352941, 0, 0, 0.0352941, 0, 132)">
<path style="fill:#000000;fill-opacity:1" d="M182 -398q-56 -21 -83 -59q-27 -38.5 -27 -92q0 -81 57.5 -136q57.5 -55 153.5 -55q96 0 154.5 56.5q58.5 56 58.5 137q0 51.5 -26.5 89.5q-27 38 -81 59q64.5 22 98 71q33.5 49 33.5 117q0 94 -65 158q-65 64 -171 64q-106 0 -171 -64.5q-65 -64 -65 -160q0 -71.5 35 -120q34.5 -48 99 -65.5l0 0M164 -551q0 52.5 32.5 85.5q33 33.5 88.5 33.5q54.5 0 86.5 -33q32.5 -33 32.5 -81q0 -50 -33.5 -84q-33.5 -34 -86.5 -34q-53.5 0 -87 33.5q-33 33 -33 79.5l0 0M140 -213.5q0 38.5 16.5 74.5q16.5 35.5 52.5 55.5q35.5 19.5 76 19.5q64 0 103.5 -41.5q39.5 -41 39.5 -105q0 -65 -40.5 -107q-41 -42.5 -105.5 -42.5q-63.5 0 -102.5 42q-39.5 41.5 -39.5 104.5l0 0" />
</g>
<g id="PathID_67" transform="matrix(0.0352941, 0, 0, 0.0352941, 48, 132)">
<path style="fill:#000000;fill-opacity:1" d="M60 -172l92 -8q10.5 61 39.5 88.5q29.5 27.5 75.5 27.5q39 0 69.5 -19q30.5 -19 48.5 -51q18 -32 30.5 -86.5q13 -54 13 -110q0 -6 -0.5 -18q-26 43 -71.5 70q-45.5 26.5 -98 26.5q-88.5 0 -149.5 -66q-61 -66 -61 -174q0 -112 64.5 -180q64.5 -68 161 -68q70.5 0 128.5 38.5q58 39 88 110.5q30 71.5 30 207q0 141.5 -30 225q-30 83.5 -89 127.5q-59 43.5 -138.5 43.5q-84.5 0 -138 -48.5q-53.5 -48 -64.5 -135.5l0 0M424 -496q0 -77.5 -39.5 -122.5q-39.5 -45.5 -98.5 -45.5q-60.5 0 -103.5 49q-42.5 48.5 -42.5 126q0 70 40.5 113.5q40.5 43.5 103 43.5q61.5 0 101 -43.5q39.5 -43.5 39.5 -120.5l0 0" />
</g>
<g id="PathID_68" transform="matrix(0.0352941, 0, 0, 0.0352941, 96, 132)">
<path style="fill:#000000;fill-opacity:1" d="M188 -440l-96 0l0 -96l96 0l0 96l0 0M188 0l-96 0l0 -96l96 0l0 96l0 0" />
</g>
<g id="PathID_69" transform="matrix(0.0352941, 0, 0, 0.0352941, 144, 132)">
<path style="fill:#000000;fill-opacity:1" d="M180 0l-96 0l0 -736l492 0l0 88l-396 0l0 224l344 0l0 88l-344 0l0 336l0 0" />
</g>
<g id="PathID_70" transform="matrix(0.0352941, 0, 0, 0.0352941, 192, 132)">
<path style="fill:#000000;fill-opacity:1" d="M180 0l-96 0l0 -736l102.5 0l373.5 570l0 -570l96 0l0 736l-102 0l-374 -570l0 570l0 0" />
</g>
<g id="PathID_71" transform="matrix(0.0352941, 0, 0, 0.0352941, 0, 180)">
<path style="fill:#000000;fill-opacity:1" d="M180 0l-96 0l0 -736l273 0q72 0 110 7q53 9 89 34.5q36 25 58 71q22 45.5 22 100q0 93.5 -58.5 158.5q-59 65 -212 65l-185.5 0l0 300l0 0M180 -648l0 260l188 0q93.5 0 133 -34.5q39 -35 39 -98q0 -45.5 -23 -78q-23 -32.5 -61 -43q-24 -6.5 -90 -6.5l-186 0l0 0" />
</g>
<g id="PathID_72" transform="matrix(0.0352941, 0, 0, 0.0352941, 48, 180)">
<path style="fill:#000000;fill-opacity:1" d="M48 -240l92 -4q6.5 54.5 30 89.5q23 35.5 72.5 57q49 21.5 110.5 21.5q54.5 0 96.5 -16.5q41.5 -16.5 62 -45q20.5 -28.5 20.5 -62.5q0 -34.5 -17 -60q-17.5 -26 -63 -43.5q-29 -11.5 -129.5 -35.5q-100 -24.5 -141 -46q-53 -27.5 -79.5 -68.5q-26 -41 -26 -91.5q0 -56 31.5 -104.5q32 -48 92.5 -73.5q61 -25 135 -25q82 0 144.5 26.5q62.5 26.5 96.5 77.5q33.5 51 36 116l-96 4q-7.5 -67 -50.5 -101.5q-42.5 -34.5 -126.5 -34.5q-87 0 -127 32q-40 32.5 -40 77.5q0 39.5 28.5 65q27.5 25.5 145 52q117 27 160 47q63 29.5 92.5 74.5q30 45.5 30 104.5q0 58.5 -33.5 110q-33 52 -95.5 81q-62.5 28.5 -140.5 28.5q-98.5 0 -165.5 -29.5q-67 -29.5 -105 -88.5q-38 -59.5 -40 -134l0 0" />
</g>
</svg>
