<?xml version="1.0" encoding="utf-8"?>
<svg version="1.1" id="Layer_1"
xmlns="http://www.w3.org/2000/svg"
xmlns:xlink="http://www.w3.org/1999/xlink"
xmlns:author="http://www.sothink.com"
width="404px" height="452px"
xml:space="preserve">
<g id="PathID_1" transform="matrix(0.0352941, 0, 0, 0.0352941, 48, 37.8)">
<path style="fill:#000000;fill-opacity:1" d="M99.5 -514l-99.5 0l0 -243.5l99.5 0l0 243.5l0 0M243.5 -514l-99 0l0 -243.5l99 0l0 243.5l0 0" />
</g>
<g id="PathID_2" transform="matrix(0.0352941, 0, 0, 0.0352941, 96, 37.8)">
<path style="fill:#000000;fill-opacity:1" d="" />
</g>
<g id="PathID_3" transform="matrix(0.0352941, 0, 0, 0.0352941, 144, 37.8)">
<path style="fill:#000000;fill-opacity:1" d="M474 -429l160 47q32.5 9.5 60.5 27q27.5 18 48 42.5q20.5 25 31.5 55q11.5 30 11.5 64q0 40 -15 75q-15 35.5 -41 61.5q-26 26.5 -61.5 41.5q-35 15.5 -75 15.5l-119 0l0 85l-150.5 0l0 -85l-308 0l0 -144.5l308 0l0 -178l-181 -53.5q-33 -9 -60.5 -27.5q-27.5 -18.5 -48 -43q-20.5 -24.5 -32.5 -54.5q-11.5 -30.5 -11.5 -64q0 -40 15 -75.5q15.5 -35.5 41.5 -61.5q26 -26 61.5 -41q35.5 -14.5 75.5 -14.5l140 0l0 -94.5l150.5 0l0 94.5l285 0l0 144l-285 0l0 184.5l0 0M173 -517l150.5 44l0 -140.5l-140 0q-20.5 0 -34.5 14q-14 14 -14 34.5q0 17 11 30q10.5 13 27 18l0 0M474 -144.5l119 0q20.5 0 34 -14q14 -14.5 14 -35q0 -17.5 -10.5 -29.5q-11 -12.5 -27.5 -17.5l-129 -38l0 134l0 0" />
</g>
<g id="PathID_4" transform="matrix(0.0352941, 0, 0, 0.0352941, 192, 37.8)">
<path style="fill:#000000;fill-opacity:1" d="M732 -757.5l151.5 0l-179 757.5l-151.5 0l179 -757.5l0 0M0 -442.5l0 -77.5q0 -49.5 19 -93q19 -43.5 51 -75.5q32.5 -32.5 75.5 -51q43 -18 92 -18l121 0q49 0 92 18q43 18.5 75.5 51q32 32 50.5 75.5q18.5 43.5 18.5 93l0 77.5q0 49.5 -18.5 92.5q-18.5 43 -50.5 75q-32.5 32.5 -75.5 51.5q-43 18.5 -92 18.5l-121 0q-49 0 -92 -18.5q-43 -19 -75.5 -51.5q-32 -32 -51 -75q-19 -43 -19 -92.5l0 0M149.5 -520l0 77.5q0 37 25.5 62.5q25.5 25.5 62.5 25.5l121 0q18.5 0 34 -6.5q16 -6.5 28 -19q11.5 -12 19 -28q7 -16 7 -34.5l0 -77.5q0 -18.5 -7 -34.5q-7.5 -16 -19 -28q-12 -12.5 -28 -19q-15.5 -6.5 -34 -6.5l-121 0q-37 0 -62.5 25.5q-25.5 25.5 -25.5 62.5l0 0M839.5 -237.5l0 -78q0 -49 19 -92.5q19 -43.5 51.5 -76q32 -32 75 -50.5q43 -18.5 92.5 -18.5l120.5 0q49.5 0 92.5 18.5q43 18.5 75 50.5q32.5 32.5 50.5 76q18.5 43.5 18.5 92.5l0 78q0 49 -18.5 92q-18 43 -50.5 75.5q-32 32 -75 51q-43 19 -92.5 19l-120.5 0q-49.5 0 -92.5 -19q-43 -19 -75 -51q-32.5 -32.5 -51.5 -75.5q-19 -43 -19 -92l0 0M989 -315.5l0 78q0 37 26 62.5q25.5 25.5 62.5 25.5l120.5 0q18.5 0 34.5 -6.5q16 -7 27.5 -19q12 -12.5 19 -28q7 -16 7 -34.5l0 -78q0 -18.5 -7 -34q-7 -16 -19 -28.5q-11.5 -12 -27.5 -19q-16 -6.5 -34.5 -6.5l-120.5 0q-37 0 -62.5 25.5q-26 26 -26 62.5l0 0" />
</g>
<g id="PathID_5" transform="matrix(0.0352941, 0, 0, 0.0352941, 240, 37.8)">
<path style="fill:#000000;fill-opacity:1" d="M635 -367.5l149.5 0l0 130q0 49 -18.5 92q-18.5 43 -50.5 75.5q-32.5 32 -76 51q-43.5 19 -92.5 19l-362.5 0q-40 0 -76 -15.5q-36 -15 -62 -41.5q-26 -26 -41.5 -62q-15 -35.5 -15 -75.5q0 -33 10.5 -63.5q11 -30.5 30 -56q19.5 -25 47 -43q27 -18 58.5 -26l9.5 -3q5 -2 10 -3.5q5.5 -1.5 12.5 -3.5q-17.5 -29 -27 -61q-10 -32.5 -10 -66q0 -49.5 18.5 -93q18.5 -43.5 50.5 -75.5q32.5 -32.5 75.5 -51q43 -18 92 -18l209 0q26.5 0 29.5 1q37 0 69.5 13.5q32 14 56.5 38.5q25 24.5 38.5 57q14 32 14 69l0 42l-149.5 0l0 -42q0 -12.5 -9 -21q-8.5 -8.5 -21 -8.5l-237.5 0q-18.5 0 -34 6.5q-16 6.5 -28 19q-11.5 12 -19 28q-7 16 -7 34.5q0 32.5 22.5 57l0 1l262.5 311.5q29.5 -6 50 -30q20.5 -24.5 20.5 -57l0 -130l0 0M139.5 -194.5q0 18.5 13 31.5q13.5 13.5 32 13.5l187 0l-101 -120l-96.5 31q-15 3 -25 15.5q-9.5 12 -9.5 28.5l0 0" />
</g>
<g id="PathID_6" transform="matrix(0.0352941, 0, 0, 0.0352941, 288, 37.8)">
<path style="fill:#000000;fill-opacity:1" d="M99.5 -514l-99.5 0l0 -243.5l99.5 0l0 243.5l0 0" />
</g>
<g id="PathID_7" transform="matrix(0.0352941, 0, 0, 0.0352941, 336, 37.8)">
<path style="fill:#000000;fill-opacity:1" d="M136 99.5l0 0q-36.5 -57.5 -66.5 -114.5q-29.5 -56.5 -50.5 -115.5q-21 -59 -32.5 -120.5q-11 -61.5 -11 -129q0 -120.5 41 -243.5q41 -123 119.5 -228.5l120 0q-73.5 116 -104.5 231.5q-30.5 115.5 -30.5 240.5q0 129 31 245.5q31.5 116 104 234l-120 0l0 0" />
</g>
<g id="PathID_8" transform="matrix(0.0352941, 0, 0, 0.0352941, 0, 84)">
<path style="fill:#000000;fill-opacity:1" d="M44 99.5l-119.5 0q72.5 -118 103.5 -234q31.5 -116.5 31.5 -245.5q0 -125 -31 -240.5q-30.5 -115.5 -104 -231.5l119.5 0q79 105.5 120 228.5q41 123 41 243.5q0 67.5 -11.5 129q-11 61.5 -32 120.5q-21 59 -51 115.5q-29.5 57 -66.5 114.5l0 0" />
</g>
<g id="PathID_9" transform="matrix(0.0352941, 0, 0, 0.0352941, 48, 84)">
<path style="fill:#000000;fill-opacity:1" d="" />
</g>
<g id="PathID_10" transform="matrix(0.0352941, 0, 0, 0.0352941, 96, 84)">
<path style="fill:#000000;fill-opacity:1" d="M306 -307l189.5 0l0 115.5l-189.5 0l0 190.5l-115.5 0l0 -190.5l-189.5 0l0 -115.5l189.5 0l0 -190.5l115.5 0l0 190.5l0 0" />
</g>
<g id="PathID_11" transform="matrix(0.0352941, 0, 0, 0.0352941, 144, 84)">
<path style="fill:#000000;fill-opacity:1" d="M1 1l0 -166l149.5 0l0 165l-129 130l-53 0l79.5 -129l-47 0l0 0" />
</g>
<g id="PathID_12" transform="matrix(0.0352941, 0, 0, 0.0352941, 192, 84)">
<path style="fill:#000000;fill-opacity:1" d="M-1 -398.5l336 0l0 116l-336 0l0 -116l0 0" />
</g>
<g id="PathID_13" transform="matrix(0.0352941, 0, 0, 0.0352941, 240, 84)">
<path style="fill:#000000;fill-opacity:1" d="M149.5 0l-149.5 0l0 -165l149.5 0l0 165l0 0" />
</g>
<g id="PathID_14" transform="matrix(0.0352941, 0, 0, 0.0352941, 288, 84)">
<path style="fill:#000000;fill-opacity:1" d="M240.5 -756l151.5 0l-261 756l-151.5 0l261 -756l0 0" />
</g>
<g id="PathID_15" transform="matrix(0.0352941, 0, 0, 0.0352941, 336, 84)">
<path style="fill:#000000;fill-opacity:1" d="M408.5 -546l170 0l-185.5 335l-169.5 -1l185 -334l0 0M0 -237.5l0 -282.5q0 -49.5 19 -93q19 -43.5 51 -75.5q32.5 -32.5 75.5 -51q43 -18 92 -18l325.5 0q49.5 0 92.5 18q43 18.5 75 51q32.5 32 51 75.5q18.5 43.5 18.5 93l0 282.5q0 49 -18.5 92q-18.5 43 -51 75.5q-32 32 -75 51q-43 19 -92.5 19l-325.5 0q-49 0 -92 -19q-43 -19 -75.5 -51q-32 -32.5 -51 -75.5q-19 -43 -19 -92l0 0M149.5 -520l0 282.5q0 37 25.5 62.5q25.5 25.5 62.5 25.5l325.5 0q18.5 0 34.5 -6.5q16 -7 27.5 -19q12 -12.5 19 -28q7.5 -16 7.5 -34.5l0 -282.5q0 -18.5 -7.5 -34.5q-7 -16 -19 -28q-11.5 -12.5 -27.5 -19q-16 -6.5 -34.5 -6.5l-325.5 0q-37 0 -62.5 25.5q-25.5 25.5 -25.5 62.5l0 0" />
</g>
<g id="PathID_16" transform="matrix(0.0352941, 0, 0, 0.0352941, 0, 132)">
<path style="fill:#000000;fill-opacity:1" d="M312.5 0l-149.5 0l0 -520q0 -18.5 -7.5 -34.5q-7 -16 -19 -28q-11.5 -12.5 -27.5 -19q-16 -6.5 -34 -6.5l-75 0l0 -149.5l75 0q49 0 92.5 18q43.5 18.5 75.5 51q32.5 32 51 75.5q18.5 43.5 18.5 93l0 520l0 0" />
</g>
<g id="PathID_17" transform="matrix(0.0352941, 0, 0, 0.0352941, 48, 132)">
<path style="fill:#000000;fill-opacity:1" d="M6 -536.5l0 -42q0 -37 14 -69.5q14 -33 38.5 -57.5q24.5 -24.5 57 -38.5q33 -13.5 70 -13.5l388 0q45 0 84.5 16.5q39.5 17 68.5 47q29 29.5 46 68.5q17 39 17 84q0 44 -17 83.5q-17 39 -46 69q-29 29.5 -68.5 46.5q-39.5 17 -84.5 17l-346 0q-18.5 0 -34.5 7q-16 7 -28 19q-12.5 12 -19 27.5q-6.5 16 -6.5 34.5q0 37 25.5 62.5q25.5 25.5 62.5 25.5l541.5 0l0 149.5l-541.5 0q-49.5 0 -92.5 -19q-43 -19 -75 -51q-32.5 -32.5 -51.5 -75.5q-18.5 -43 -18.5 -92q0 -49 18.5 -92.5q19 -43.5 51.5 -76q32 -32 75 -50.5q43 -18.5 92.5 -18.5l346 0q27.5 0 47 -19.5q19.5 -19.5 19.5 -47q0 -28 -19.5 -47.5q-19.5 -19 -47 -19l-388 0q-12.5 0 -21 8.5q-9 8.5 -9 21l0 42l-149.5 0l0 0" />
</g>
<g id="PathID_18" transform="matrix(0.0352941, 0, 0, 0.0352941, 96, 132)">
<path style="fill:#000000;fill-opacity:1" d="M563 -325.5l-188 0l0 -149.5l188 0q28 0 47.5 -19.5q19.5 -19.5 19.5 -47q0 -28 -19.5 -47.5q-19.5 -19 -47.5 -19l-384 0q-12 0 -21 8.5q-8.5 8.5 -8.5 21l0 42l-149.5 0l0 -42q0 -37 14 -69.5q13.5 -33 38 -57.5q25 -24.5 57.5 -38.5q33 -13.5 69.5 -13.5l384 0q45.5 0 84 16.5q39 17 69 47q29.5 29.5 46.5 68.5q17 39 17 84q0 38.5 -13 73.5q-13 35 -35.5 62.5q33 33 51.5 76q18.5 43 18.5 92q0 49 -18.5 92q-18.5 43 -51 75.5q-32 32 -75.5 51q-43.5 19 -93 19l-384 0q-36.5 0 -69.5 -14q-32.5 -13.5 -57.5 -38q-24.5 -25 -38 -57.5q-14 -33 -14 -69.5l0 -42l149.5 0l0 42q0 12 8.5 21q9 8.5 21 8.5l384 0q37 0 62.5 -25.5q26 -25.5 26 -62.5q0 -18.5 -7 -34.5q-6.5 -15.5 -19 -27.5q-12 -12 -28 -19q-16 -7 -34.5 -7l0 0" />
</g>
<g id="PathID_19" transform="matrix(0.0352941, 0, 0, 0.0352941, 144, 132)">
<path style="fill:#000000;fill-opacity:1" d="M0 -427l0 -330.5l147.5 0l0 330.5q0 36 25.5 61.5q25.5 25.5 61.5 25.5l408.5 0l0 -417.5l147.5 0l0 757.5l-147.5 0l0 -192.5l-408.5 0q-48 0 -91 -18.5q-43 -18.5 -75 -50q-31.5 -32 -50 -75q-18.5 -43 -18.5 -91l0 0" />
</g>
<g id="PathID_20" transform="matrix(0.0352941, 0, 0, 0.0352941, 192, 132)">
<path style="fill:#000000;fill-opacity:1" d="M206 -757.5l558 0l0 149.5l-558 0q-28 0 -47.5 19q-19 19.5 -19 47.5q0 27.5 19 47q19.5 19.5 47.5 19.5l346 0q49 0 92.5 18.5q43.5 18.5 76 50.5q32 32.5 50.5 76q18.5 43.5 18.5 92.5q0 49 -18.5 92q-18.5 43 -50.5 75.5q-32.5 32 -76 51q-43.5 19 -92.5 19l-367.5 0q-37 0 -70 -14q-32.5 -13.5 -56.5 -38q-24 -25 -38.5 -57.5q-14.5 -33 -14.5 -69.5l0 -42l149.5 0l0 42q0 12 9 21q8.5 8.5 21 8.5l367.5 0q37 0 62.5 -25.5q25.5 -25.5 25.5 -62.5q0 -18.5 -6.5 -34.5q-7 -15.5 -19 -27.5q-12.5 -12 -28 -19q-16 -7 -34.5 -7l-346 0q-44 0 -83.5 -17q-39.5 -17 -69 -46.5q-30 -30 -47 -69q-16.5 -39.5 -16.5 -83.5q0 -45 16.5 -84q17 -39 47 -68.5q29.5 -30 69 -47q39.5 -16.5 83.5 -16.5l0 0" />
</g>
<g id="PathID_21" transform="matrix(0.0352941, 0, 0, 0.0352941, 240, 132)">
<path style="fill:#000000;fill-opacity:1" d="M783.5 -578.5l0 42l-148.5 0l0 -42q0 -12.5 -9 -21q-8.5 -8.5 -21 -8.5l-367.5 0q-37 0 -62.5 25.5q-25.5 25.5 -25.5 62.5l0 45l412.5 0q49.5 0 93 18.5q43.5 18.5 75.5 50.5q32.5 32.5 51 76q18.5 43.5 18.5 92.5q0 49 -18.5 92q-18.5 43 -51 75.5q-32 32 -75 50.5q-43 18.5 -92.5 18.5l-325.5 1q-49 0 -92 -19q-43 -19 -75.5 -51q-32 -32.5 -51 -75.5q-19 -43 -19 -92l0 -282.5q0 -49.5 19 -93q19 -43.5 51 -75.5q32.5 -32.5 75.5 -51q43 -18 92 -18l367.5 1q37 0 69.5 13.5q32 14 56.5 38.5q24.5 24.5 38.5 57q14 32 14 69l0 0M562 -325.5l-412.5 0l0 88q0 37 25.5 62.5q25.5 25.5 62.5 25.5l324.5 0q18.5 0 34.5 -7q16 -7.5 28 -19q12.5 -12 19 -27.5q7 -16 7 -34.5q0 -37 -26 -62.5q-25.5 -25.5 -62.5 -25.5l0 0" />
</g>
<g id="PathID_22" transform="matrix(0.0352941, 0, 0, 0.0352941, 288, 132)">
<path style="fill:#000000;fill-opacity:1" d="M740.5 -363.5l-305.5 363.5l-194.5 0l388.5 -462l0 -1q22.5 -24.5 22.5 -57q0 -18.5 -7.5 -34.5q-7 -16 -19 -28q-11.5 -12.5 -27.5 -19q-16 -6.5 -34.5 -6.5l-384 0q-12 0 -21 8.5q-8.5 8.5 -8.5 21l0 42l-149.5 0l0 -42q0 -37 14 -69q13.5 -32.5 38 -57q25 -24.5 57 -38.5q32.5 -13.5 69 -13.5l385 -1q49.5 0 92.5 18q43 18.5 75 51q32.5 32 51 75.5q18.5 43.5 18.5 93q0 43 -15.5 83q-15.5 39.5 -44 73.5l0 0" />
</g>
<g id="PathID_23" transform="matrix(0.0352941, 0, 0, 0.0352941, 336, 132)">
<path style="fill:#000000;fill-opacity:1" d="M721 -405.5q32.5 33 51 76q18.5 43 18.5 92q0 49 -18.5 92q-18.5 43 -50.5 75.5q-32.5 32 -76 51q-43.5 19 -92.5 19l-325.5 0q-49.5 0 -92.5 -19q-43 -19 -75 -51q-32.5 -32.5 -51.5 -75.5q-18.5 -43 -18.5 -92q0 -49 18 -92q18.5 -43 51.5 -76q-22.5 -27.5 -35.5 -62.5q-12.5 -35 -12.5 -73.5q0 -45 16.5 -84q17 -39 47 -68.5q29.5 -30 69 -47q39.5 -16.5 83.5 -16.5l325.5 0q45 0 84 16.5q39 17 68.5 47q30 29.5 46.5 68.5q17 39 17 84q0 38.5 -13 73.5q-12.5 35 -35 62.5l0 0M553 -608l-325.5 0q-28 0 -47.5 19q-19 19.5 -19 47.5q0 27.5 19 47q19.5 19.5 47.5 19.5l325.5 0q27.5 0 47 -19.5q19.5 -19.5 19.5 -47q0 -28 -19.5 -47.5q-19.5 -19 -47 -19l0 0M553 -325.5l-325.5 0q-18.5 0 -34.5 7q-16 7 -28 19q-12.5 12 -19 27.5q-6.5 16 -6.5 34.5q0 37 25.5 62.5q25.5 25.5 62.5 25.5l325.5 0q37 0 62.5 -25.5q25.5 -25.5 25.5 -62.5q0 -18.5 -6.5 -34.5q-7 -15.5 -19 -27.5q-12.5 -12 -28 -19q-16 -7 -34.5 -7l0 0" />
</g>
<g id="PathID_24" transform="matrix(0.0352941, 0, 0, 0.0352941, 0, 180)">
<path style="fill:#000000;fill-opacity:1" d="M227.5 -756.5l324.5 -1q49 0 92.5 18q43.5 18.5 76 51q32 32 50.5 75.5q18.5 43.5 18.5 93l0 282.5q0 49 -18.5 92q-18.5 43 -50.5 75.5q-32.5 32 -76 51q-43.5 19 -92.5 19l-367.5 -1q-37 0 -69.5 -14q-32 -13.5 -56.5 -38q-24.5 -25 -38.5 -57q-14 -32.5 -14 -69l0 -42l148.5 0l0 42q0 12 9 21q8.5 8.5 21 8.5l367.5 0q37 0 62.5 -25.5q25.5 -25.5 25.5 -62.5l0 -45l-412.5 0q-49.5 0 -92.5 -19q-43 -19 -75 -51q-32.5 -32.5 -51.5 -75.5q-18.5 -43 -18.5 -92q0 -49.5 18.5 -92.5q19 -43 51.5 -75q32 -32.5 75 -51q43 -18 92.5 -18l0 0M227.5 -432l412.5 0l0 -88q0 -37 -25.5 -62.5q-25.5 -25.5 -61.5 -25.5l-325.5 0q-18.5 0 -34.5 7q-16 7 -28 19q-12.5 11.5 -19 27.5q-6.5 16 -6.5 34.5q0 36.5 25.5 62.5q25.5 25.5 62.5 25.5l0 0" />
</g>
<g id="PathID_25" transform="matrix(0.0352941, 0, 0, 0.0352941, 48, 180)">
<path style="fill:#000000;fill-opacity:1" d="M149.5 -286.5l-149.5 0l0 -165l149.5 0l0 165l0 0M149.5 0l-149.5 0l0 -165l149.5 0l0 165l0 0" />
</g>
<g id="PathID_26" transform="matrix(0.0352941, 0, 0, 0.0352941, 96, 180)">
<path style="fill:#000000;fill-opacity:1" d="M149.5 -286.5l-149.5 0l0 -165l149.5 0l0 165l0 0M1 -165l0 166l47 0l-79.5 129l53 0l129 -130l0 -165l-149.5 0l0 0" />
</g>
<g id="PathID_27" transform="matrix(0.0352941, 0, 0, 0.0352941, 144, 180)">
<path style="fill:#000000;fill-opacity:1" d="" />
</g>
<g id="PathID_28" transform="matrix(0.0352941, 0, 0, 0.0352941, 192, 180)">
<path style="fill:#000000;fill-opacity:1" d="M430 -387l-431 0l0 -119l431 0l0 119l0 0M-1 -295l431 0l0 120l-431 0l0 -120l0 0" />
</g>
<g id="PathID_29" transform="matrix(0.0352941, 0, 0, 0.0352941, 240, 180)">
<path style="fill:#000000;fill-opacity:1" d="" />
</g>
<g id="PathID_30" transform="matrix(0.0352941, 0, 0, 0.0352941, 288, 180)">
<path style="fill:#000000;fill-opacity:1" d="M354.5 0l-149.5 0l0 -165l149.5 0l0 165l0 0M178 -756.5l384 -1q49.5 0 93 18q43.5 18.5 75.5 51q32.5 32 51 75.5q18.5 43.5 18.5 93q0 41 -14 78.5q-14 38 -38.5 69q-24.5 30.5 -59 52.5q-34 22 -74 31.5l-409.5 92l0 -152.5q53 -12.5 117.5 -27q64.5 -14 123 -27.5q67.5 -15.5 136 -30.5q30 -7.5 49.5 -31.5q19.5 -24 19.5 -54.5q0 -37 -26 -62.5q-25.5 -25.5 -61.5 -25.5l-384 0q-12 0 -21 8.5q-8.5 8.5 -8.5 21l0 42l-149.5 0l0 -42q0 -37 14 -69q13.5 -32.5 38 -57q25 -24.5 57 -38.5q32.5 -13.5 69 -13.5l0 0" />
</g>
<g id="PathID_31" transform="matrix(0.0352941, 0, 0, 0.0352941, 336, 180)">
<path style="fill:#000000;fill-opacity:1" d="M800 -521.5l0 361l-266.5 1l0 -146l-258 0l0 133.5l-99.5 0l0 -294.5q0 -28.5 11 -54q10.5 -25.5 29.5 -44.5q19 -19 44 -30q25 -10.5 54 -10.5l179 0q29 0 54.5 10.5q25.5 11 44.5 30q19 19 29.5 44.5q11 25.5 11 54l0 226.5l66.5 0l0 -281.5q0 -29 -11 -54q-10.5 -25 -29 -43.5q-18.5 -18.5 -43.5 -29q-25 -11 -53 -11l-325.5 0q-28.5 0 -53.5 11q-25 10.5 -43.5 29q-18.5 18.5 -29.5 43.5q-10.5 25 -10.5 54l0 282.5q0 28.5 10.5 53.5q11 25 29.5 43q18.5 18.5 43.5 29.5q25 10.5 53.5 10.5l559 0l0 100.5l-559 0q-49 0 -92 -19q-43 -19 -75.5 -51q-32 -32.5 -51 -75.5q-19 -42.5 -19 -91.5l0 -282.5q0 -49 19 -93q19 -43.5 51 -75.5q32.5 -32.5 75.5 -50.5q43 -18.5 92 -18.5l325.5 0q49.5 0 92.5 18.5q43 18 75 50.5q32.5 32 51 75.5q18.5 44 18.5 93l0 0M275.5 -465l0 61.5l258 0l0 -61.5q0 -16 -12 -28q-11.5 -12 -28 -12l-179 0q-16.5 0 -28 12q-11 12 -11 28l0 0" />
</g>
<g id="PathID_32" transform="matrix(0.0352941, 0, 0, 0.0352941, 0, 228)">
<path style="fill:#000000;fill-opacity:1" d="" />
</g>
<g id="PathID_33" transform="matrix(0.0352941, 0, 0, 0.0352941, 48, 228)">
<path style="fill:#000000;fill-opacity:1" d="M-20.5 -757.5l151.5 0l261 757.5l-151.5 0l-261 -757.5l0 0" />
</g>
<g id="PathID_34" transform="matrix(0.0352941, 0, 0, 0.0352941, 96, 228)">
<path style="fill:#000000;fill-opacity:1" d="" />
</g>
<g id="PathID_35" transform="matrix(0.0352941, 0, 0, 0.0352941, 144, 228)">
<path style="fill:#000000;fill-opacity:1" d="" />
</g>
<g id="PathID_36" transform="matrix(0.0352941, 0, 0, 0.0352941, 192, 228)">
<path style="fill:#000000;fill-opacity:1" d="M0 -101.5l523.5 0l0 100.5l-523.5 0l0 -100.5l0 0" />
</g>
<g id="PathID_37" transform="matrix(0.0352941, 0, 0, 0.0352941, 240, 228)">
<path style="fill:#000000;fill-opacity:1" d="M242.5 -966.5l176.5 0l88 146.5l-130 0l-134.5 -146.5l0 0" />
</g>
<g id="PathID_38" transform="matrix(0.0352941, 0, 0, 0.0352941, 288, 228)">
<path style="fill:#000000;fill-opacity:1" d="" />
</g>
<g id="PathID_39" transform="matrix(0.0352941, 0, 0, 0.0352941, 336, 228)">
<path style="fill:#000000;fill-opacity:1" d="" />
</g>
<g id="PathID_40" transform="matrix(0.0352941, 0, 0, 0.0352941, 0, 276)">
<path style="fill:#000000;fill-opacity:1" d="" />
</g>
<g id="PathID_41" transform="matrix(0.0352941, 0, 0, 0.0352941, 48, 276)">
<path style="fill:#000000;fill-opacity:1" d="" />
</g>
<g id="PathID_42" transform="matrix(0.0352941, 0, 0, 0.0352941, 96, 276)">
<path style="fill:#000000;fill-opacity:1" d="M619.5 -244.5l-452.5 0q-14.5 61 -28 124.5q-14 63.5 -27.5 120l-152.5 0l129 -571q9.5 -40 31 -74q21.5 -34.5 52 -59q31 -24.5 69 -38q38.5 -14 79.5 -14l147.5 0q42 0 80 14q37.5 13.5 68.5 38q30.5 24.5 52 59q21.5 34 31 74l129 571l-152.5 0q-13.5 -56.5 -27.5 -120q-13.5 -63.5 -28 -124.5l0 0M200.5 -392l385.5 0q-7.5 -33 -13 -59.5q-5.5 -26 -11 -46q-5 -22.5 -9 -41q-7 -30 -31 -50q-24.5 -19.5 -55 -19.5l-147.5 0q-30.5 0 -55.5 19.5q-24.5 20 -30.5 50q-4 18.5 -9 41q-5.5 20 -10.5 46q-5 26.5 -13.5 59.5l0 0M242.5 -966.5l176.5 0l88 146.5l-130 0l-134.5 -146.5l0 0" />
</g>
<g id="PathID_43" transform="matrix(0.0352941, 0, 0, 0.0352941, 144, 276)">
<path style="fill:#000000;fill-opacity:1" d="M0 -237l0 -282q0 -49 19 -92.5q19 -43.5 51 -75.5q32.5 -32 75.5 -50.5q43 -18.5 92 -18.5l325.5 0q49.5 0 92.5 18.5q43 18.5 75 50.5q32.5 32 51 75.5q18.5 43.5 18.5 92.5l0 282q0 49 -18.5 92q-18.5 43 -51 75q-32 32 -75 51q-43 19 -92.5 19l-325.5 0q-49 0 -92 -19q-43 -19 -75.5 -51q-32 -32 -51 -75q-19 -43 -19 -92l0 0M149.5 -520l0 282.5q0 37 25.5 62.5q25.5 25.5 62.5 25.5l325.5 0q18.5 0 34.5 -6.5q16 -7 27.5 -19q12 -12.5 19 -28q7.5 -16 7.5 -34.5l0 -282.5q0 -18.5 -7.5 -34.5q-7 -16 -19 -28q-11.5 -12.5 -27.5 -19q-16 -6.5 -34.5 -6.5l-325.5 0q-37 0 -62.5 25.5q-25.5 25.5 -25.5 62.5l0 0M253 -966.5l176 0l88 146.5l-130 0l-134 -146.5l0 0" />
</g>
<g id="PathID_44" transform="matrix(0.0352941, 0, 0, 0.0352941, 192, 276)">
<path style="fill:#000000;fill-opacity:1" d="M0 -238l0 -283.5q0 -49.5 19 -93q19 -44 51 -76q32.5 -32.5 75.5 -51q43 -18.5 92 -18.5l325.5 0q49.5 0 92.5 18.5q43 18.5 75 51q32.5 32 51 76q18.5 43.5 18.5 93l0 283.5q0 49 -18.5 92q-18.5 43.5 -51 75.5q-32 32.5 -75 51.5q-43 19 -92.5 19l-325.5 0q-49 0 -92 -19q-43 -19 -75.5 -51.5q-32 -32 -51 -75.5q-19 -43 -19 -92l0 0M149.5 -520l0 282.5q0 37 25.5 62.5q25.5 25.5 62.5 25.5l325.5 0q18.5 0 34.5 -6.5q16 -7 27.5 -19q12 -12.5 19 -28q7.5 -16 7.5 -34.5l0 -282.5q0 -18.5 -7.5 -34.5q-7 -16 -19 -28q-11.5 -12.5 -27.5 -19q-16 -6.5 -34.5 -6.5l-325.5 0q-37 0 -62.5 25.5q-25.5 25.5 -25.5 62.5l0 0M402.5 -968l176 0l-134 146l-130 0l88 -146l0 0" />
</g>
<g id="PathID_45" transform="matrix(0.0352941, 0, 0, 0.0352941, 240, 276)">
<path style="fill:#000000;fill-opacity:1" d="M798 -578.5l0 42l-148.5 0l0 -42q0 -12 -8.5 -21q-8.5 -8.5 -21 -8.5l-384 0q-37 0 -62.5 25.5q-25.5 25.5 -25.5 62l0 44.5l261 0l0 152l-261 0l0 88q0 37 25.5 62.5q25.5 25.5 62.5 25.5l384 0q12.5 0 21 -8.5q8.5 -9 8.5 -21l0 -42l148.5 0l0 42q0 36.5 -13.5 68.5q-14 32 -38.5 56.5q-24.5 24 -57 38q-32 13.5 -69 13.5l-384 1q-49 0 -92 -19q-43 -19 -75.5 -51q-32 -32.5 -51 -75.5q-19 -43 -19 -92l0 -282.5q0 -49 19 -92.5q19 -43.5 51 -76q32.5 -32 75.5 -50.5q43 -18.5 92 -18.5l384 1q37 0 69 14q32.5 13.5 57 38.5q24.5 24.5 38.5 56.5q13.5 32.5 13.5 69l0 0M232 -928l124 0l0 104l-124 0l0 -104l0 0M456 -928l124 0l0 104l-124 0l0 -104l0 0" />
</g>
<g id="PathID_46" transform="matrix(0.0352941, 0, 0, 0.0352941, 288, 276)">
<path style="fill:#000000;fill-opacity:1" d="M0 0l0 -760l147.5 0l0 760l-147.5 0l0 0M85 -968l176 0l-134 146.5l-130 0l88 -146.5l0 0" />
</g>
<g id="PathID_47" transform="matrix(0.0352941, 0, 0, 0.0352941, 336, 276)">
<path style="fill:#000000;fill-opacity:1" d="M797.5 -577.5l0 41.5l-147 0l0 -42q0 -12.5 -9 -21q-8.5 -8.5 -21 -8.5l-384 0q-37 0 -62.5 25.5q-25.5 25.5 -25.5 62.5l0 283q0 37 25.5 62.5q25.5 25.5 62.5 25.5l384 0q12.5 0 21 -8.5q9 -8.5 9 -21l0 -42l147 0l0 42q0 37 -13.5 69q-14 32.5 -38 56.5q-24 24 -56.5 38.5q-32 14 -69 14l-145.5 0l-55 44l47 1.5l0 100l-149.5 0l0 -100l90 -45.5l-171 1q-49 0 -92 -18.5q-43 -19 -75.5 -51.5q-32 -32 -51 -75q-19 -43 -19 -92.5l0 -282q0 -49.5 19 -93q19 -43 51 -75.5q32.5 -32 75.5 -50.5q43 -18.5 92 -18.5l384 1q37 0 69 14.5q32.5 14 56.5 38q24 24 38 56q13.5 32 13.5 69l0 0" />
</g>
<g id="PathID_48" transform="matrix(0.0352941, 0, 0, 0.0352941, 0, 324)">
<path style="fill:#000000;fill-opacity:1" d="M0 0l0 -756l147.5 0l0 756l-147.5 0l0 0M-134 -966.5l176 0l88 146.5l-130 0l-134 -146.5l0 0" />
</g>
<g id="PathID_49" transform="matrix(0.0352941, 0, 0, 0.0352941, 48, 324)">
<path style="fill:#000000;fill-opacity:1" d="M0 0l0 -756l147.5 0l0 756l-147.5 0l0 0M144.5 -966.5l105.5 146.5l-134.5 0l-37.5 -54l-40 54l-127 0l105.5 -146.5l128 0l0 0" />
</g>
<g id="PathID_50" transform="matrix(0.0352941, 0, 0, 0.0352941, 96, 324)">
<path style="fill:#000000;fill-opacity:1" d="M651.5 -237.5l0 -520l148.5 0l0 520q0 49 -18.5 92q-18.5 43 -51 75.5q-32 32 -75 51q-43 19 -92.5 19l-325.5 0q-49 0 -92 -19q-43 -19 -75.5 -51q-32 -32.5 -51 -75.5q-19 -43 -19 -92l0 -520l149.5 0l0 520q0 37 25.5 62.5q25.5 25.5 62.5 25.5l325.5 0q18.5 0 34.5 -6.5q16 -7 27.5 -19q12 -12.5 19 -28q7.5 -16 7.5 -34.5l0 0M224 -928l124 0l0 104l-124 0l0 -104l0 0M448 -928l124 0l0 104l-124 0l0 -104l0 0" />
</g>
<g id="PathID_51" transform="matrix(0.0352941, 0, 0, 0.0352941, 144, 324)">
<path style="fill:#000000;fill-opacity:1" d="M619.5 -244.5l-452.5 0q-14.5 61 -28 124.5q-14 63.5 -27.5 120l-152.5 0l129 -574q9.5 -40 31 -74.5q21.5 -34.5 52 -59q31 -24.5 69 -38.5q38.5 -14 79.5 -14l147.5 0q42 0 80 14q37.5 14 68.5 38.5q30.5 24.5 52 59q21.5 34.5 31 74.5l129 574l-152.5 0q-13.5 -56.5 -27.5 -120q-13.5 -63.5 -28 -124.5l0 0M200.5 -392l385.5 0q-7.5 -33 -13 -59.5q-5.5 -26 -11 -46q-5 -22.5 -9 -41q-7 -30 -31 -50q-24.5 -19.5 -55 -19.5l-147.5 0q-30.5 0 -55.5 19.5q-24.5 20 -30.5 50q-4 18.5 -9 41q-5.5 20 -10.5 46q-5 26.5 -13.5 59.5l0 0M382 -968l176 0l-134 146.5l-130 0l88 -146.5l0 0" />
</g>
<g id="PathID_52" transform="matrix(0.0352941, 0, 0, 0.0352941, 192, 324)">
<path style="fill:#000000;fill-opacity:1" d="M0 0l0 -757.5l147.5 0l0 757.5l-147.5 0l0 0M-76 -928l124 0l0 104l-124 0l0 -104l0 0M92 -928l124 0l0 104l-124 0l0 -104l0 0" />
</g>
<g id="PathID_53" transform="matrix(0.0352941, 0, 0, 0.0352941, 240, 324)">
<path style="fill:#000000;fill-opacity:1" d="M0 -237.5l0 -282.5q0 -49.5 19 -93q19 -43.5 51 -75.5q32.5 -32.5 75.5 -51q43 -18 92 -18l325.5 0q49.5 0 92.5 18q43 18.5 75 51q32.5 32 51 75.5q18.5 43.5 18.5 93l0 282.5q0 49 -18.5 92q-18.5 43 -51 75.5q-32 32 -75 51q-43 19 -92.5 19l-325.5 0q-49 0 -92 -19q-43 -19 -75.5 -51q-32 -32.5 -51 -75.5q-19 -43 -19 -92l0 0M149.5 -520l0 282.5q0 37 25.5 62.5q25.5 25.5 62.5 25.5l325.5 0q18.5 0 34.5 -6.5q16 -7 27.5 -19q12 -12.5 19 -28q7.5 -16 7.5 -34.5l0 -282.5q0 -18.5 -7.5 -34.5q-7 -16 -19 -28q-11.5 -12.5 -27.5 -19q-16 -6.5 -34.5 -6.5l-325.5 0q-37 0 -62.5 25.5q-25.5 25.5 -25.5 62.5l0 0M224 -928l124 0l0 104l-124 0l0 -104l0 0M448 -928l124 0l0 104l-124 0l0 -104l0 0" />
</g>
<g id="PathID_54" transform="matrix(0.0352941, 0, 0, 0.0352941, 288, 324)">
<path style="fill:#000000;fill-opacity:1" d="M619.5 -244.5l-452.5 0q-14.5 61 -28 124.5q-14 63.5 -27.5 120l-152.5 0l129 -571q9.5 -40 31 -74q21.5 -34.5 52 -59q31 -24.5 69 -38q38.5 -14 79.5 -14l147.5 0q42 0 80 14q37.5 13.5 68.5 38q30.5 24.5 52 59q21.5 34 31 74l129 571l-152.5 0q-13.5 -56.5 -27.5 -120q-13.5 -63.5 -28 -124.5l0 0M200.5 -392l385.5 0q-7.5 -33 -13 -59.5q-5.5 -26 -11 -46q-5 -22.5 -9 -41q-7 -30 -31 -50q-24.5 -19.5 -55 -19.5l-147.5 0q-30.5 0 -55.5 19.5q-24.5 20 -30.5 50q-4 18.5 -9 41q-5.5 20 -10.5 46q-5 26.5 -13.5 59.5l0 0M462 -966.5l105.5 146.5l-134.5 0l-37.5 -54l-40 54l-127 0l105.5 -146.5l128 0l0 0" />
</g>
<g id="PathID_55" transform="matrix(0.0352941, 0, 0, 0.0352941, 336, 324)">
<path style="fill:#000000;fill-opacity:1" d="M619.5 -244.5l-452.5 0q-14.5 61 -28 124.5q-14 63.5 -27.5 120l-152.5 0l129 -572.5q9.5 -40 31 -74q21.5 -34.5 52 -59q31 -24.5 69 -38.5q38.5 -13.5 79.5 -13.5l147.5 0q42 0 80 13.5q37.5 14 68.5 38.5q30.5 24.5 52 59q21.5 34 31 74l129 572.5l-152.5 0q-13.5 -56.5 -27.5 -120q-13.5 -63.5 -28 -124.5l0 0M204.5 -392l385 0q-7 -33 -13 -59.5q-5.5 -26 -10.5 -46q-5 -22.5 -9.5 -41q-7 -30 -31 -50q-24 -19.5 -55 -19.5l-147 0q-31 0 -55.5 19.5q-24.5 20 -30.5 50q-4.5 18.5 -9.5 41q-5 20 -10 46q-5.5 26.5 -13.5 59.5l0 0M224 -928l124 0l0 104l-124 0l0 -104l0 0M448 -928l124 0l0 104l-124 0l0 -104l0 0" />
</g>
<g id="PathID_56" transform="matrix(0.0352941, 0, 0, 0.0352941, 0, 372)">
<path style="fill:#000000;fill-opacity:1" d="M0 -237l0 -282q0 -49 19 -92.5q19 -43.5 51 -75.5q32.5 -32 75.5 -50.5q43 -18.5 92 -18.5l325.5 0q49.5 0 92.5 18.5q43 18.5 75 50.5q32.5 32 51 75.5q18.5 43.5 18.5 92.5l0 282q0 49 -18.5 92q-18.5 43 -51 75q-32 32 -75 51q-43 19 -92.5 19l-325.5 0q-49 0 -92 -19q-43 -19 -75.5 -51q-32 -32 -51 -75q-19 -43 -19 -92l0 0M149.5 -520l0 282.5q0 37 25.5 62.5q25.5 25.5 62.5 25.5l325.5 0q18.5 0 34.5 -6.5q16 -7 27.5 -19q12 -12.5 19 -28q7.5 -16 7.5 -34.5l0 -282.5q0 -18.5 -7.5 -34.5q-7 -16 -19 -28q-11.5 -12.5 -27.5 -19q-16 -6.5 -34.5 -6.5l-325.5 0q-37 0 -62.5 25.5q-25.5 25.5 -25.5 62.5l0 0M462 -966.5l105.5 146.5l-134.5 0l-37.5 -54l-40 54l-127 0l105.5 -146.5l128 0l0 0" />
</g>
</svg>
